<svg data-v-70b83f88="" version="1.0" xmlns="http://www.w3.org/2000/svg" xmlns:xlink="http://www.w3.org/1999/xlink" width="100%" height="100%" viewBox="0 0 340.000000 250.000000" preserveAspectRatio="xMidYMid meet" color-interpolation-filters="sRGB" style="margin: auto;"> <rect data-v-70b83f88="" x="0" y="0" width="100%" height="100%" fill="#FFFFFF" fill-opacity="0" class="background"></rect>  <g data-v-70b83f88="" class="iconmbgsvg" transform="translate(66.5,19.969711303710938)"><g fill="#333333" hollow-target="text"><g mask="url(#f271b785-3c6a-4ac1-bc52-44a8f224e16f)"><g><rect fill="#333333" fill-opacity="0" stroke-width="2" x="0" y="0" width="207.00000000000006" height="210.0605826897903" class="image-rect"></rect> <svg x="0" y="0" width="207.00000000000006" height="210.0605826897903" filtersec="colorsb3650542421" class="image-svg-svg primary" style="overflow: visible;"><svg xmlns="http://www.w3.org/2000/svg" viewBox="0.03014121763408184 -0.0006380081176757812 187.21327209472656 189.9812774658203"><path d="M76.25 15.71a16.63 16.63 0 0 1 6.09 22.73l-50.89 88.15a16.63 16.63 0 0 1-22.73 6.09A16.63 16.63 0 0 1 2.63 110l50.89-88.2a16.64 16.64 0 0 1 22.73-6.09z" fill="#ff546d"></path><path d="M175 62.88a17.34 17.34 0 0 1 6.35 23.69l-54.42 94.26a17.34 17.34 0 0 1-23.69 6.35 17.34 17.34 0 0 1-6.35-23.69l54.42-94.26A17.34 17.34 0 0 1 175 62.88z" fill="#00d4e6"></path><path d="M19.67 135c-7.07-1.8-15.42-3.26-18.28-10a17.35 17.35 0 0 1 15.31-24.07c6.38-.25 12.68 2.44 18.88 3.94 8.7 2.11 23.07 6.92 42 17.86s30.3 21 36.48 27.47c4.4 4.62 9.87 8.73 12.85 14.37a17.35 17.35 0 0 1-13.25 25.33c-7.25.88-12.68-5.62-17.77-10.84-6.13-6.29-17-15.55-35.66-26.29S28.18 137.2 19.67 135z" fill="#6d86f5"></path><path d="M91.33 10.92C86.23 5.7 80.8-.8 73.56.08A17.36 17.36 0 0 0 60.3 25.41c3 5.65 8.46 9.75 12.86 14.38 6.18 6.48 17.53 16.52 36.48 27.46S143 83 151.66 85.11c6.21 1.5 12.5 4.19 18.89 4a17.35 17.35 0 0 0 15.3-24.15c-2.86-6.71-11.2-8.16-18.27-10-8.51-2.17-22-7-40.6-17.74s-29.52-20.01-35.65-26.3z" fill="#ffaa50"></path><path d="M82.12 5.54a16.63 16.63 0 0 1 6.09 22.73L66.68 65.56A16.63 16.63 0 0 1 44 71.65a16.64 16.64 0 0 1-6.09-22.72l21.49-37.3a16.63 16.63 0 0 1 22.72-6.09z" fill="#ff546d"></path><path d="M145.43 114.1a17.35 17.35 0 0 1 6.34 23.7l-24.84 43a17.35 17.35 0 0 1-23.7 6.35 17.34 17.34 0 0 1-6.34-23.69l24.84-43a17.37 17.37 0 0 1 23.7-6.36z" fill="#00d4e6"></path></svg></svg> <!----></g><rect v-gra="id" width="219" height="222.06057739257812" transform="translate(-6, -6)" style="pointer-events:none;" fill="url(#l5LttuW8BfMd8b7BIv92n)"></rect></g> <g transform="translate(83.5,242.03028869628906)"><g data-gra="path-name" fill-rule="" class="tp-name"><g transform="scale(1)"><g><path d="" transform="translate(0, 0)"></path></g> <!----> <!----> <!----> <!----> <!----> <!----> <!----></g></g> <!----></g></g></g><mask id="5d23b85a-76ac-47f8-81ef-bcef3a5007bd"><g fill="white"><g><rect fill-opacity="1" stroke-width="2" x="0" y="0" width="207.00000000000006" height="210.0605826897903" class="image-rect"></rect> <svg x="0" y="0" width="207.00000000000006" height="210.0605826897903" filtersec="colorsb3650542421" class="image-svg-svg primary" style="overflow: visible;"><svg xmlns="http://www.w3.org/2000/svg" viewBox="0.03014121763408184 -0.0006380081176757812 187.21327209472656 189.9812774658203"><path d="M76.25 15.71a16.63 16.63 0 0 1 6.09 22.73l-50.89 88.15a16.63 16.63 0 0 1-22.73 6.09A16.63 16.63 0 0 1 2.63 110l50.89-88.2a16.64 16.64 0 0 1 22.73-6.09z"></path><path d="M175 62.88a17.34 17.34 0 0 1 6.35 23.69l-54.42 94.26a17.34 17.34 0 0 1-23.69 6.35 17.34 17.34 0 0 1-6.35-23.69l54.42-94.26A17.34 17.34 0 0 1 175 62.88z"></path><path d="M19.67 135c-7.07-1.8-15.42-3.26-18.28-10a17.35 17.35 0 0 1 15.31-24.07c6.38-.25 12.68 2.44 18.88 3.94 8.7 2.11 23.07 6.92 42 17.86s30.3 21 36.48 27.47c4.4 4.62 9.87 8.73 12.85 14.37a17.35 17.35 0 0 1-13.25 25.33c-7.25.88-12.68-5.62-17.77-10.84-6.13-6.29-17-15.55-35.66-26.29S28.18 137.2 19.67 135z"></path><path d="M91.33 10.92C86.23 5.7 80.8-.8 73.56.08A17.36 17.36 0 0 0 60.3 25.41c3 5.65 8.46 9.75 12.86 14.38 6.18 6.48 17.53 16.52 36.48 27.46S143 83 151.66 85.11c6.21 1.5 12.5 4.19 18.89 4a17.35 17.35 0 0 0 15.3-24.15c-2.86-6.71-11.2-8.16-18.27-10-8.51-2.17-22-7-40.6-17.74s-29.52-20.01-35.65-26.3z"></path><path d="M82.12 5.54a16.63 16.63 0 0 1 6.09 22.73L66.68 65.56A16.63 16.63 0 0 1 44 71.65a16.64 16.64 0 0 1-6.09-22.72l21.49-37.3a16.63 16.63 0 0 1 22.72-6.09z"></path><path d="M145.43 114.1a17.35 17.35 0 0 1 6.34 23.7l-24.84 43a17.35 17.35 0 0 1-23.7 6.35 17.34 17.34 0 0 1-6.34-23.69l24.84-43a17.37 17.37 0 0 1 23.7-6.36z"></path></svg></svg> </g></g> <g transform="translate(83.5,242.03028869628906)" fill="black" stroke="black" stroke-width="6" stroke-linejoin="round"><g data-gra="path-name" fill-rule="" class="tp-name"><g transform="scale(1)"><g><path d="" transform="translate(0, 0)"></path></g>       </g></g> </g></mask><defs v-gra="od"></defs><defs v-gra="id"><filter id="9c3f9837-d186-48a2-8b01-2e2d6b6f6626" filterUnits="userSpaceOnUse"><feColorMatrix type="matrix" values="0 0 0 0 0.99609375  0 0 0 0 0.99609375  0 0 0 0 0.99609375  0 0 0 1 0"></feColorMatrix></filter><linearGradient x1="0" y1="1" x2="0" y2="0" id="l5LttuW8BfMd8b7BIv92n"><stop offset="0%" stop-color="#00c5fb"></stop><stop offset="100%" stop-color="#175bea"></stop></linearGradient><filter id="42443b3f1de60f6b6fd3b6a9844b4764" filterUnits="userSpaceOnUse"><feColorMatrix type="matrix" values="0 0 0 0 0.99609375  0 0 0 0 0.99609375  0 0 0 0 0.99609375  0 0 0 1 0"></feColorMatrix></filter></defs><mask v-gra="im" id="f271b785-3c6a-4ac1-bc52-44a8f224e16f"><g mask="url(#5d23b85a-76ac-47f8-81ef-bcef3a5007bd)" filter="url(#9c3f9837-d186-48a2-8b01-2e2d6b6f6626)"><g><rect fill="#333333" fill-opacity="0" stroke-width="2" x="0" y="0" width="207.00000000000006" height="210.0605826897903" class="image-rect"></rect> <svg x="0" y="0" width="207.00000000000006" height="210.0605826897903" filtersec="colorsb3650542421" class="image-svg-svg primary" style="overflow: visible;"><svg xmlns="http://www.w3.org/2000/svg" viewBox="0.03014121763408184 -0.0006380081176757812 187.21327209472656 189.9812774658203"><path d="M76.25 15.71a16.63 16.63 0 0 1 6.09 22.73l-50.89 88.15a16.63 16.63 0 0 1-22.73 6.09A16.63 16.63 0 0 1 2.63 110l50.89-88.2a16.64 16.64 0 0 1 22.73-6.09z" fill="#ff546d"></path><path d="M175 62.88a17.34 17.34 0 0 1 6.35 23.69l-54.42 94.26a17.34 17.34 0 0 1-23.69 6.35 17.34 17.34 0 0 1-6.35-23.69l54.42-94.26A17.34 17.34 0 0 1 175 62.88z" fill="#00d4e6"></path><path d="M19.67 135c-7.07-1.8-15.42-3.26-18.28-10a17.35 17.35 0 0 1 15.31-24.07c6.38-.25 12.68 2.44 18.88 3.94 8.7 2.11 23.07 6.92 42 17.86s30.3 21 36.48 27.47c4.4 4.62 9.87 8.73 12.85 14.37a17.35 17.35 0 0 1-13.25 25.33c-7.25.88-12.68-5.62-17.77-10.84-6.13-6.29-17-15.55-35.66-26.29S28.18 137.2 19.67 135z" fill="#6d86f5"></path><path d="M91.33 10.92C86.23 5.7 80.8-.8 73.56.08A17.36 17.36 0 0 0 60.3 25.41c3 5.65 8.46 9.75 12.86 14.38 6.18 6.48 17.53 16.52 36.48 27.46S143 83 151.66 85.11c6.21 1.5 12.5 4.19 18.89 4a17.35 17.35 0 0 0 15.3-24.15c-2.86-6.71-11.2-8.16-18.27-10-8.51-2.17-22-7-40.6-17.74s-29.52-20.01-35.65-26.3z" fill="#ffaa50"></path><path d="M82.12 5.54a16.63 16.63 0 0 1 6.09 22.73L66.68 65.56A16.63 16.63 0 0 1 44 71.65a16.64 16.64 0 0 1-6.09-22.72l21.49-37.3a16.63 16.63 0 0 1 22.72-6.09z" fill="#ff546d"></path><path d="M145.43 114.1a17.35 17.35 0 0 1 6.34 23.7l-24.84 43a17.35 17.35 0 0 1-23.7 6.35 17.34 17.34 0 0 1-6.34-23.69l24.84-43a17.37 17.37 0 0 1 23.7-6.36z" fill="#00d4e6"></path></svg></svg> <!----></g></g></mask></svg>